<?xml version="1.0" standalone="no"?>
<!DOCTYPE svg PUBLIC "-//W3C//DTD SVG 20010904//EN"
 "http://www.w3.org/TR/2001/REC-SVG-20010904/DTD/svg10.dtd">
<svg version="1.0" xmlns="http://www.w3.org/2000/svg"
 width="1979.000000pt" height="1979.000000pt" viewBox="0 0 1979.000000 1979.000000"
 preserveAspectRatio="xMidYMid meet">

<g transform="translate(0.000000,1979.000000) scale(0.100000,-0.100000)"
fill="#000000" stroke="none">
<path d="M9390 18539 c-1466 -84 -2900 -548 -4145 -1342 -1181 -754 -2186
-1809 -2872 -3017 -670 -1180 -1047 -2458 -1123 -3809 -13 -237 -13 -715 0
-952 76 -1351 453 -2629 1123 -3809 757 -1333 1904 -2480 3237 -3237 1180
-670 2458 -1047 3809 -1123 237 -13 715 -13 952 0 1351 76 2629 453 3809 1123
1208 686 2263 1691 3017 2872 654 1026 1088 2187 1262 3375 143 978 119 2005
-70 2954 -210 1059 -612 2061 -1192 2971 -754 1181 -1809 2186 -3017 2872
-1180 670 -2458 1047 -3809 1123 -212 12 -767 11 -981 -1z m1165 -1003 c678
-64 1225 -181 1832 -389 1397 -481 2631 -1361 3549 -2532 805 -1026 1347
-2278 1538 -3550 66 -443 81 -655 81 -1170 0 -433 -6 -560 -41 -870 -230
-2034 -1275 -3898 -2899 -5171 -1026 -805 -2278 -1347 -3550 -1538 -443 -66
-655 -81 -1170 -81 -433 0 -560 6 -870 41 -2034 230 -3898 1275 -5171 2899
-805 1026 -1347 2278 -1538 3550 -66 443 -81 655 -81 1170 0 433 6 560 41 870
230 2034 1275 3898 2899 5171 1184 929 2645 1496 4130 1604 83 6 168 12 190
14 113 10 902 -3 1060 -18z"/>
<path d="M9970 15233 c-740 -41 -1207 -363 -1405 -969 -42 -125 -79 -304 -97
-464 -19 -169 -16 -643 6 -980 24 -374 16 -539 -40 -825 -67 -341 -245 -719
-468 -993 -859 -1058 -1307 -2016 -1306 -2792 1 -69 5 -158 10 -199 l10 -74
-56 -60 c-31 -33 -102 -121 -158 -196 -57 -75 -124 -156 -150 -180 -53 -48
-138 -90 -296 -146 -225 -79 -349 -171 -422 -311 -69 -134 -76 -249 -34 -552
37 -256 35 -308 -14 -472 -105 -349 -90 -540 57 -684 113 -112 282 -160 758
-216 422 -49 593 -93 855 -218 336 -161 581 -225 860 -225 166 0 282 18 402
64 156 60 302 182 378 316 l35 62 55 5 c64 7 292 43 535 85 358 62 517 65 886
16 282 -37 474 -55 605 -55 l80 0 17 -52 c28 -88 107 -217 185 -300 154 -163
342 -250 572 -264 327 -20 719 160 1015 467 327 340 403 395 846 619 156 78
320 166 364 195 337 222 337 488 2 893 -40 48 -83 101 -95 119 -34 48 -69 150
-113 327 -77 313 -123 415 -229 508 -30 26 -80 61 -112 78 -43 23 -58 36 -54
48 34 115 57 203 70 282 93 535 -11 1106 -311 1704 -195 389 -377 661 -768
1146 -498 618 -644 878 -722 1285 -12 64 -16 181 -18 580 -3 560 -15 751 -66
1045 -110 626 -375 1041 -793 1239 -245 117 -531 164 -876 144z m530 -1502
c160 -62 291 -224 352 -436 19 -67 23 -103 23 -225 -1 -123 -4 -156 -24 -220
-24 -78 -79 -194 -113 -240 l-20 -27 -121 48 c-67 27 -128 49 -135 49 -8 0 -2
19 17 53 40 71 61 159 61 258 0 99 -17 170 -58 241 -43 78 -89 111 -160 116
-50 3 -63 0 -105 -27 -93 -60 -150 -193 -151 -352 l-1 -96 -55 25 c-30 13 -83
33 -117 43 -59 18 -63 22 -69 56 -10 52 3 228 21 298 9 33 37 102 61 154 71
146 195 257 333 297 65 19 193 12 261 -15z m-1343 -107 c156 -75 271 -307 276
-557 l2 -109 -62 -23 c-35 -13 -82 -36 -106 -50 l-44 -25 -6 87 c-7 112 -37
198 -88 257 -73 83 -152 80 -208 -9 -85 -133 -64 -368 44 -501 l26 -32 -63
-46 -63 -47 -38 42 c-119 134 -183 418 -142 634 59 318 261 480 472 379z m643
-739 c119 -28 195 -62 369 -162 53 -31 170 -83 270 -120 238 -88 287 -112 348
-167 117 -106 127 -236 29 -378 -80 -118 -203 -203 -411 -286 -102 -40 -135
-58 -285 -152 -177 -112 -320 -160 -470 -160 -101 0 -163 10 -241 40 -74 27
-125 62 -242 164 -53 47 -150 121 -215 165 -239 160 -335 319 -277 458 22 53
33 63 210 196 88 66 192 150 230 185 76 70 195 154 253 180 123 52 299 68 432
37z m1115 -1000 c69 -256 204 -646 350 -1010 137 -340 211 -504 396 -875 92
-184 192 -394 222 -465 102 -244 190 -518 240 -753 14 -62 27 -115 29 -118 3
-2 41 -9 84 -14 44 -5 93 -12 110 -16 31 -6 32 -5 53 57 44 134 54 207 55 389
1 207 -14 306 -80 510 -94 290 -259 573 -461 790 -77 82 -103 117 -103 139 0
74 271 -218 429 -463 120 -185 242 -442 300 -631 72 -231 98 -515 67 -720 -9
-60 -18 -117 -19 -126 -1 -12 36 -36 133 -86 262 -134 426 -264 485 -386 31
-65 44 -175 28 -237 -8 -32 -13 -35 -49 -38 l-40 -3 0 88 c1 102 -7 122 -85
207 -166 182 -639 381 -863 363 -184 -15 -282 -105 -322 -297 -8 -41 -16 -75
-17 -75 -98 -42 -151 -77 -223 -149 -180 -181 -258 -443 -294 -981 -17 -266
-30 -383 -50 -475 -19 -86 -106 -400 -112 -405 -2 -1 -37 -24 -78 -52 -195
-129 -395 -226 -617 -299 -578 -190 -1141 -134 -1620 163 -61 38 -81 58 -132
133 -34 48 -101 140 -150 203 l-89 114 65 7 c188 19 295 123 295 285 0 296
-313 665 -878 1037 -279 184 -382 277 -489 443 -265 411 -209 981 168 1715 96
187 277 496 290 496 22 0 -11 -82 -132 -322 -179 -353 -242 -511 -295 -738
-38 -159 -50 -285 -43 -439 11 -236 68 -423 186 -600 l36 -55 2 40 c25 396
108 778 247 1132 30 75 123 286 206 467 327 711 487 1124 575 1490 40 162 75
369 75 437 0 26 4 50 10 53 14 9 182 -107 295 -204 132 -114 164 -137 238
-171 109 -51 176 -63 327 -58 193 7 281 39 538 197 70 43 181 99 246 126 187
75 298 147 383 247 21 25 41 43 45 39 3 -3 18 -51 33 -106z m1421 -3535 c112
-28 324 -136 398 -202 136 -121 128 -249 -23 -390 -126 -118 -261 -180 -396
-182 -71 -1 -86 2 -134 29 -138 76 -235 301 -218 504 8 97 25 146 66 192 63
70 161 86 307 49z m-430 -630 c41 -111 96 -200 163 -263 78 -73 134 -102 223
-116 196 -31 482 86 696 284 l73 68 137 -5 c154 -6 212 -23 294 -83 105 -77
142 -157 224 -484 63 -250 93 -319 196 -441 142 -170 213 -286 244 -399 26
-92 9 -153 -62 -231 -73 -79 -129 -112 -471 -284 -181 -91 -342 -180 -429
-237 -127 -84 -157 -110 -349 -304 -115 -117 -239 -235 -275 -263 -152 -117
-306 -194 -479 -239 -122 -32 -300 -36 -401 -9 -193 52 -339 171 -441 361
-109 202 -92 440 75 1010 117 403 132 485 156 860 38 590 127 857 330 987 l45
28 17 -97 c9 -54 25 -118 34 -143z m-4762 205 c160 -42 308 -167 452 -381 108
-160 151 -237 297 -531 152 -306 196 -374 477 -723 367 -457 482 -692 449
-915 -6 -38 -18 -95 -26 -125 -120 -426 -678 -556 -1317 -306 -61 24 -157 67
-213 94 -121 61 -298 124 -442 157 -122 27 -231 44 -571 85 -267 33 -356 52
-452 97 -195 92 -221 269 -96 653 40 125 41 234 3 490 -36 242 -33 346 13 444
37 80 106 149 185 189 31 16 117 50 190 77 270 97 309 128 510 394 50 67 113
144 140 173 119 127 248 168 401 128z"/>
<path d="M10524 12246 c-49 -24 -143 -76 -209 -116 -172 -104 -353 -193 -480
-236 -94 -31 -127 -38 -225 -42 -96 -4 -130 -1 -200 17 -154 38 -293 120 -458
270 -100 90 -152 131 -168 131 -10 0 -14 -13 -14 -38 0 -37 6 -44 108 -135
183 -164 304 -241 457 -292 97 -33 272 -44 381 -26 161 28 352 111 624 272
171 101 285 159 312 159 14 0 18 8 18 40 0 37 -2 40 -28 40 -16 0 -69 -20
-118 -44z"/>
</g>
</svg>
